<svg xmlns="http://www.w3.org/2000/svg" width="19.914" height="17.701" viewBox="0 0 19.914 17.701"><path d="M7.191,0A2.206,2.206,0,0,0,5.055,1.666c-.028,0-.048-.007-.076-.007A2.215,2.215,0,0,0,2.766,3.872a2.039,2.039,0,0,0,.059.484A2.742,2.742,0,0,0,1.393,8.121a2.756,2.756,0,0,0,.315,4.944,2.534,2.534,0,0,0-.048.487,2.488,2.488,0,0,0,2.489,2.489A2.344,2.344,0,0,0,4.564,16a2.483,2.483,0,0,0,4.84-.788v-13A2.215,2.215,0,0,0,7.191,0ZM19.914,10.51a2.751,2.751,0,0,0-1.393-2.389,2.721,2.721,0,0,0,.287-1.207,2.766,2.766,0,0,0-1.718-2.558,2.192,2.192,0,0,0-2.154-2.7c-.028,0-.052.007-.076.007a2.208,2.208,0,0,0-4.349.546v13A2.483,2.483,0,0,0,15.35,16a2.344,2.344,0,0,0,.415.041,2.488,2.488,0,0,0,2.489-2.489,2.533,2.533,0,0,0-.048-.487A2.766,2.766,0,0,0,19.914,10.51Z"/></svg>