<svg xmlns="http://www.w3.org/2000/svg" width="17.31" height="23.08" viewBox="0 0 17.31 23.08"><path d="M17.31,8.655H14.425V6.947A4.315,4.315,0,0,0,17.31,2.885H14.425V1.443A1.443,1.443,0,0,0,12.983,0H4.328A1.443,1.443,0,0,0,2.885,1.443V2.885H0A4.315,4.315,0,0,0,2.885,6.947V8.655H0a4.315,4.315,0,0,0,2.885,4.062v1.708H0a4.313,4.313,0,0,0,3.02,4.1,5.764,5.764,0,0,0,11.27,0,4.313,4.313,0,0,0,3.02-4.1H14.425V12.717A4.315,4.315,0,0,0,17.31,8.655Zm-8.655,10.1a2.164,2.164,0,1,1,2.164-2.164A2.164,2.164,0,0,1,8.655,18.753Zm0-5.77a2.164,2.164,0,1,1,2.164-2.164A2.164,2.164,0,0,1,8.655,12.983Zm0-5.77a2.164,2.164,0,1,1,2.164-2.164A2.164,2.164,0,0,1,8.655,7.213Z"/></svg>