<svg xmlns="http://www.w3.org/2000/svg" width="29.461" height="23.569" viewBox="0 0 29.461 23.569"><path d="M0,11.784v5.892A1.471,1.471,0,0,0,1.473,19.15H2.946V10.311H1.473A1.471,1.471,0,0,0,0,11.784ZM21.359,4.419H16.2V1.473a1.473,1.473,0,1,0-2.946,0V4.419H8.1A3.682,3.682,0,0,0,4.419,8.1V20.623a2.949,2.949,0,0,0,2.946,2.946H22.1a2.949,2.949,0,0,0,2.946-2.946V8.1A3.682,3.682,0,0,0,21.359,4.419ZM11.784,19.15H8.838V17.677h2.946Zm-1.473-5.524a1.841,1.841,0,1,1,1.841-1.841A1.841,1.841,0,0,1,10.311,13.626ZM16.2,19.15H13.257V17.677H16.2Zm4.419,0H17.677V17.677h2.946ZM19.15,13.626a1.841,1.841,0,1,1,1.841-1.841A1.841,1.841,0,0,1,19.15,13.626Zm8.838-3.314H26.515V19.15h1.473a1.471,1.471,0,0,0,1.473-1.473V11.784A1.471,1.471,0,0,0,27.988,10.311Z" fill="#0d6fb8"/></svg>